<!-- Creator: CorelDRAW X8 -->
<svg xmlns="http://www.w3.org/2000/svg" xml:space="preserve" width="64px" height="64px" version="1.1" shape-rendering="geometricPrecision" text-rendering="geometricPrecision" image-rendering="optimizeQuality" fill-rule="evenodd" clip-rule="evenodd"
viewBox="0 0 835 742"
 xmlns:xlink="http://www.w3.org/1999/xlink">
 <g id="Camada_x0020_1">
  <metadata id="CorelCorpID_0Corel-Layer"/>
  <g id="_1744611166160">
   <path fill="#fff" d="M381 673l-1 0c-2,9 -10,16 -20,16 -13,0 -22,-9 -22,-21 0,-2 0,-4 0,-5l0 0 0 0c27,-112 127,-195 245,-195 139,0 252,113 252,252 0,12 -10,22 -22,22l-459 0 0 0 0 0c-13,0 -23,-10 -23,-22 0,-12 10,-22 23,-22l0 0c56,0 91,0 148,0 13,-28 44,-49 81,-48 33,0 63,14 81,48l126 0c-6,-107 -115,-192 -207,-186 -82,-5 -180,63 -202,161l0 0zm246 69c0,-24 -20,-44 -44,-44 -24,0 -44,20 -44,44l88 0z"/>
   <path fill="#fff" d="M235 733c12,0 21,-9 21,-21 0,-11 -7,-20 -17,-22l0 0c-112,-29 -195,-130 -195,-250 0,-137 107,-249 241,-258 -3,15 -4,30 -4,45 -8,-4 -19,-3 -26,4 -9,9 -9,23 0,32l18 18 -18 18c-8,8 -8,22 0,31 5,4 10,6 16,6 6,0 11,-2 16,-6l17 -18 19 18c4,5 10,7 15,7 6,0 12,-2 16,-7 7,-7 8,-17 4,-25 2,0 3,0 4,0 47,0 92,-15 130,-41 44,47 69,110 69,176 0,12 10,22 22,22 12,0 22,-10 22,-22 0,-76 -29,-150 -80,-206 53,-56 73,-136 53,-211 -2,-8 -8,-14 -15,-15 -19,-5 -39,-8 -58,-8 -60,0 -116,23 -159,65 -20,21 -37,46 -47,72 -166,2 -299,137 -299,303 0,141 98,261 230,293l0 0c2,0 3,0 5,0l0 0zm143 -636c34,-34 79,-53 127,-53 11,0 22,1 34,3 11,58 -8,119 -50,161 -34,34 -79,53 -127,53 -11,0 -23,-1 -34,-3 -11,-59 7,-119 50,-161z"/>
   <g>
    <path fill="#fff" d="M658 646c16,-16 32,-32 49,-48 5,-6 15,-6 20,0 6,6 6,15 0,21 -16,16 -32,32 -48,48 -6,6 -15,6 -21,0 -6,-6 -6,-15 0,-21l0 0z"/>
   </g>
   <path fill="none" d="M669 656c13,-13 37,-37 48,-48"/>
   <g>
    <path fill="#fff" d="M488 667c-16,-16 -32,-32 -48,-48 -5,-6 -5,-15 0,-21 6,-6 15,-6 21,0 16,16 32,32 48,48 6,6 6,15 0,21 -6,6 -15,6 -21,0l0 0z"/>
   </g>
   <path fill="none" d="M499 656c-14,-13 -37,-37 -48,-48"/>
   <circle fill="#fff" cx="360" cy="668" r="21"/>
   <line fill="none" x1="354" y1="742" x2="354" y2= "698" />
  </g>
 </g>
</svg>
